<?xml version="1.0" standalone="no"?>
<!DOCTYPE svg PUBLIC "-//W3C//DTD SVG 20010904//EN"
 "http://www.w3.org/TR/2001/REC-SVG-20010904/DTD/svg10.dtd">
<svg version="1.0" xmlns="http://www.w3.org/2000/svg"
 width="300.000000pt" height="96.000000pt" viewBox="0 0 300.000000 96.000000"
 preserveAspectRatio="xMidYMid meet">
<metadata>
Created by potrace 1.10, written by Peter Selinger 2001-2011
</metadata>
<g transform="translate(0.000000,96.000000) scale(0.100000,-0.100000)"
fill="#000000" stroke="none">
<path d="M285 926 c-140 -66 -233 -257 -206 -423 13 -80 71 -194 127 -249 46
-44 156 -104 190 -104 11 0 25 4 33 9 9 6 23 4 38 -6 31 -20 93 -10 88 15 -2
9 -4 21 -4 25 -1 5 -6 5 -12 1 -8 -4 -7 -9 2 -15 11 -7 10 -9 -3 -9 -9 0 -18
-5 -20 -12 -3 -7 -9 -8 -19 -2 -8 5 -17 9 -21 9 -12 0 -21 15 -9 15 8 0 11 7
7 15 -3 9 0 15 9 15 8 0 15 4 15 9 0 16 66 -21 76 -43 13 -30 71 -24 145 15
77 41 132 102 177 197 35 73 37 82 37 177 0 95 -2 104 -37 177 -74 155 -212
242 -312 197 -23 -11 -56 -62 -56 -88 0 -24 24 -60 47 -70 36 -16 51 -14 79
15 24 23 27 24 49 10 33 -22 79 -92 99 -149 48 -142 -22 -305 -162 -374 -75
-37 -192 -39 -262 -5 -139 67 -207 203 -176 351 13 64 59 142 103 175 23 17
27 17 37 4 14 -19 50 -38 71 -38 27 0 65 46 65 80 0 42 -15 67 -50 85 -41 21
-87 19 -145 -9z m433 -33 c29 -14 59 -34 66 -44 7 -11 16 -16 19 -12 4 3 7 -1
7 -10 0 -25 -4 -32 -15 -29 -5 2 -18 6 -29 8 -10 2 -28 11 -39 21 -11 10 -17
12 -13 6 10 -18 1 -16 -18 3 -14 14 -19 13 -48 -9 -41 -29 -65 -25 -73 15 -6
25 -2 35 21 58 33 31 43 30 122 -7z m-289 -2 c21 -24 20 -61 0 -69 -5 -2 -7
-7 -4 -11 9 -16 -32 -6 -49 12 -27 27 -70 21 -104 -13 -19 -19 -36 -28 -46
-24 -9 3 -13 11 -10 16 4 6 -2 8 -17 4 l-24 -7 23 14 c12 7 20 16 16 19 -7 8
69 60 110 74 48 16 82 11 105 -15z m406 -124 c-8 -4 -15 -17 -15 -28 0 -17 3
-18 21 -9 11 7 23 9 26 6 8 -8 -7 -26 -23 -26 -8 0 -14 -6 -14 -12 -1 -7 -8 0
-16 15 -9 16 -13 35 -10 42 3 9 -4 15 -17 18 -19 4 -18 4 5 6 15 0 30 6 34 12
4 8 9 7 15 -2 5 -9 3 -17 -6 -22z m-621 1 c7 -12 6 -24 -3 -41 -12 -22 -17
-24 -42 -15 -28 10 -40 28 -19 28 6 0 10 6 10 13 0 17 21 38 34 34 5 -2 14
-11 20 -19z m-49 -70 c21 -9 35 -28 20 -28 -12 0 -55 24 -55 32 0 11 4 10 35
-4z m725 -7 c0 -5 -9 -13 -20 -16 -11 -3 -20 -14 -20 -23 0 -13 2 -13 14 4 17
23 34 11 38 -26 2 -21 -2 -26 -24 -28 -23 -3 -28 2 -37 34 -6 21 -9 39 -8 39
30 22 57 29 57 16z m-710 -39 c-1 -20 -19 -34 -39 -27 -12 4 -21 2 -21 -4 0
-6 11 -11 23 -11 21 0 24 -5 25 -45 2 -42 0 -45 -23 -45 -14 0 -25 -4 -25 -10
0 -5 4 -10 8 -10 5 0 9 -7 9 -15 0 -8 -6 -15 -14 -15 -8 0 -13 13 -13 35 0 28
4 35 19 35 10 0 22 7 25 16 5 14 4 15 -8 4 -9 -6 -21 -10 -27 -8 -18 6 -20 38
-2 38 13 0 13 -3 3 -15 -7 -9 -8 -15 -2 -15 5 0 13 7 16 16 9 22 8 24 -9 24
-8 0 -15 9 -15 20 0 11 4 20 9 20 5 0 7 9 4 20 -5 18 -3 19 26 9 17 -6 31 -14
31 -17z m728 -92 c2 -37 0 -40 -25 -40 l-26 0 21 -19 c23 -19 20 -31 -10 -31
-10 0 -18 -4 -18 -10 0 -5 9 -10 20 -10 11 0 20 -4 20 -9 0 -5 -15 -9 -34 -8
-32 2 -33 3 -24 30 6 15 17 27 26 27 13 0 13 2 -2 13 -17 13 -17 14 -1 31 10
9 24 15 31 12 8 -3 14 -1 14 5 0 16 -31 23 -41 8 -7 -11 -9 -9 -9 8 0 16 7 23
28 26 15 2 27 5 28 6 0 0 1 -17 2 -39z m-748 -105 c-13 -14 -18 -25 -11 -25 7
0 9 -4 6 -10 -10 -16 -23 -12 -28 8 -4 21 20 52 41 52 12 0 10 -6 -8 -25z m21
-48 c-6 -15 -15 -27 -21 -27 -13 0 -13 17 1 25 6 4 8 13 5 20 -3 8 0 16 7 18
17 6 19 -6 8 -36z m699 3 c0 -5 -10 -10 -22 -10 -40 0 -51 -14 -29 -34 37 -34
-1 -62 -42 -32 -18 14 -18 16 -1 40 9 15 24 31 33 36 21 13 61 13 61 0z m-660
-25 c22 -42 -21 -75 -51 -39 -11 14 -10 18 6 31 11 8 19 19 18 24 -6 19 14 8
27 -16z m47 -60 c13 -9 20 -22 17 -30 -4 -8 -1 -15 6 -15 6 0 8 -5 4 -12 -5
-9 -2 -8 10 1 15 13 16 12 11 -18 -5 -30 -4 -31 15 -21 16 8 22 8 26 -4 4 -9
16 -13 35 -11 33 5 50 -18 30 -38 -9 -9 -16 -6 -31 13 l-20 25 -1 -25 c-2 -23
-2 -23 -6 -3 -3 14 -9 20 -18 16 -13 -5 -67 29 -66 41 2 22 -2 26 -24 26 -14
0 -25 5 -25 10 0 6 -7 10 -15 10 -8 0 -15 5 -15 11 0 6 8 9 19 6 14 -3 17 0
14 14 -6 23 5 24 34 4z m531 -28 c3 -15 0 -18 -17 -12 -16 5 -19 3 -15 -8 3
-8 1 -18 -5 -22 -6 -3 -14 1 -17 9 -9 22 -19 20 -21 -4 -1 -11 2 -18 8 -15 10
7 13 -8 3 -18 -9 -9 -34 4 -34 18 0 22 -39 5 -61 -26 -11 -16 -17 -29 -12 -29
4 0 2 -4 -6 -9 -18 -12 -41 -3 -41 15 0 14 12 18 39 14 13 -1 13 1 2 14 -8 9
-10 17 -5 17 5 1 14 2 19 3 14 2 57 27 73 43 7 7 20 13 28 13 8 0 14 5 14 11
0 18 45 5 48 -14z"/>
<path d="M167 750 c-4 -14 0 -20 12 -20 23 0 31 9 24 26 -8 21 -30 17 -36 -6z"/>
<path d="M456 761 c-13 -5 -16 -10 -8 -15 6 -3 8 -14 5 -23 -5 -13 -1 -15 20
-9 47 11 73 13 40 3 -26 -8 -33 -16 -33 -36 l0 -25 20 22 c24 26 52 28 70 7
11 -13 10 -22 -3 -50 l-17 -35 33 0 c17 0 28 -4 22 -8 -16 -12 -16 -32 0 -32
24 0 20 56 -5 63 -11 3 -20 11 -20 17 0 7 7 10 16 6 9 -3 22 -6 30 -6 10 0 13
-7 8 -25 -4 -17 -2 -25 7 -25 10 0 10 -3 1 -12 -7 -7 -12 -32 -11 -57 1 -55
12 -90 23 -73 19 31 75 1 76 -40 0 -25 20 -23 20 2 0 18 10 48 33 97 7 17 5
29 -13 58 -15 25 -19 39 -12 48 7 8 6 16 -4 25 -12 11 -14 9 -14 -8 0 -11 -3
-19 -7 -19 -23 4 -43 -2 -38 -11 4 -6 11 -8 16 -4 13 8 37 -13 55 -48 20 -39
1 -35 -26 5 -24 36 -23 29 3 -23 15 -28 16 -41 8 -64 -10 -24 -14 -26 -27 -16
-8 7 -14 20 -13 29 2 19 -19 76 -26 69 -3 -2 -6 -20 -9 -39 -2 -22 -9 -35 -21
-37 -15 -3 -16 3 -12 48 3 29 13 60 23 73 17 19 17 20 1 8 -15 -12 -17 -11
-14 5 5 29 26 64 39 64 6 0 20 7 30 17 17 15 18 15 18 -5 0 -12 5 -22 10 -22
14 0 12 22 -4 43 -17 23 -33 22 -41 -3 -7 -22 -31 -27 -38 -7 -3 6 -6 2 -6
-10 -1 -13 -7 -23 -15 -23 -8 0 -21 -2 -29 -6 -9 -3 -20 7 -31 29 -21 45 -20
47 7 48 17 0 13 4 -18 19 -42 20 -87 24 -119 11z"/>
<path d="M272 708 c-7 -7 -12 -23 -12 -37 0 -13 3 -21 8 -17 7 7 8 12 11 38 1
7 8 5 19 -5 10 -10 23 -17 28 -17 12 0 37 -39 41 -65 3 -15 1 -17 -9 -7 -6 6
-22 12 -34 12 -13 0 -29 7 -38 15 -16 17 -36 20 -36 6 0 -6 5 -13 10 -16 7 -4
3 -19 -10 -42 -22 -38 -20 -78 7 -119 7 -12 11 -28 8 -37 -4 -8 -2 -18 4 -21
5 -3 15 10 21 29 12 35 34 44 74 29 24 -9 20 -37 -4 -31 -11 3 -20 1 -20 -5 0
-5 -4 -6 -10 -3 -5 3 -10 -1 -10 -9 0 -18 -34 -39 -45 -28 -5 4 -5 1 0 -6 5
-10 18 -12 41 -7 29 5 41 1 75 -27 35 -28 50 -33 107 -36 63 -4 70 -2 120 32
44 31 56 35 73 25 11 -6 24 -8 27 -4 11 10 -26 60 -43 57 -8 -2 -15 2 -15 8 0
18 -17 11 -23 -9 -4 -15 -1 -18 12 -13 14 5 14 3 3 -11 -8 -8 -20 -13 -28 -10
-8 3 -14 -1 -14 -10 0 -9 -8 -16 -17 -16 -44 -1 -54 -5 -49 -18 6 -16 -8 -17
-35 -2 -11 6 -35 11 -52 11 -38 1 -58 14 -50 34 3 8 0 14 -7 14 -6 0 -8 -4 -5
-10 10 -16 -12 -12 -29 6 -20 20 -20 23 2 17 13 -3 18 2 19 19 2 24 -23 58
-43 58 -7 0 -10 8 -7 20 3 13 0 20 -8 20 -11 0 -11 2 1 10 8 5 10 10 4 10 -18
0 -32 -22 -36 -54 -4 -39 -22 -43 -37 -10 -10 22 -9 30 4 43 8 10 18 32 21 49
5 27 11 32 34 32 27 0 38 -14 58 -75 9 -26 11 -27 11 -7 1 13 -4 32 -10 43 -8
15 -7 24 2 35 9 11 9 18 1 26 -17 17 -15 28 3 22 8 -4 15 -1 15 5 0 6 -9 11
-20 11 -13 0 -20 7 -20 18 0 11 -11 24 -25 30 -33 15 -48 15 -63 0z m-2 -158
c-7 -16 -16 -30 -21 -30 -13 0 -11 8 8 41 21 36 30 29 13 -11z"/>
<path d="M416 664 c-10 -26 -7 -28 14 -9 16 15 20 15 20 3 0 -8 -12 -21 -26
-28 -23 -13 -24 -15 -7 -21 23 -10 38 -11 30 -2 -4 3 0 11 8 17 20 15 8 56
-15 56 -10 0 -21 -7 -24 -16z"/>
<path d="M1196 655 c-37 -19 -53 -41 -61 -83 -21 -109 93 -186 166 -113 35 36
37 51 5 51 -16 0 -27 -7 -31 -20 -4 -14 -15 -20 -35 -20 -59 0 -82 89 -35 135
30 31 39 31 67 3 24 -24 58 -34 58 -17 0 24 -24 52 -55 65 -42 17 -43 17 -79
-1z"/>
<path d="M1936 649 c-19 -15 -26 -30 -26 -54 0 -40 12 -51 75 -65 51 -12 67
-24 58 -47 -7 -18 -80 -17 -90 1 -10 18 -45 25 -50 10 -9 -26 33 -57 83 -61
61 -6 104 22 104 67 0 39 -23 54 -112 74 -19 4 -28 13 -28 25 0 35 63 43 80
11 11 -20 50 -28 50 -11 0 23 -15 43 -41 56 -39 21 -72 19 -103 -6z"/>
<path d="M1370 545 l0 -115 25 0 c24 0 25 3 25 55 l0 55 46 0 46 0 -4 -52 c-3
-49 -1 -53 20 -56 22 -3 22 -2 22 112 0 115 0 116 -24 116 -22 0 -23 -3 -18
-46 l5 -45 -49 3 -49 3 3 43 c3 39 2 42 -22 42 l-26 0 0 -115z"/>
<path d="M1600 544 c0 -114 0 -115 23 -112 19 3 22 9 22 48 l0 45 35 -3 c48
-5 50 -8 50 -53 0 -35 3 -39 25 -39 24 0 24 2 18 48 -3 26 -10 52 -15 58 -5 7
-2 16 7 24 21 17 19 56 -5 80 -16 16 -33 20 -90 20 l-70 0 0 -116z m128 49
c-3 -25 -7 -28 -45 -31 -42 -3 -43 -2 -43 27 0 30 1 31 46 31 44 0 45 -1 42
-27z"/>
<path d="M1820 545 l0 -115 25 0 25 0 0 115 0 115 -25 0 -25 0 0 -115z"/>
<path d="M2120 548 l0 -113 80 0 c76 0 80 1 80 22 0 20 -3 21 -55 16 l-55 -6
0 97 c0 96 0 96 -25 96 l-25 0 0 -112z"/>
<path d="M2375 648 c-2 -7 -20 -58 -40 -113 -19 -55 -35 -101 -35 -102 0 -2
11 -3 25 -3 18 0 26 7 31 25 5 22 12 25 50 25 38 0 44 -3 50 -25 4 -18 13 -25
30 -25 13 0 24 3 24 6 0 4 -17 56 -37 115 -36 103 -39 109 -66 109 -15 0 -30
-6 -32 -12z m48 -83 l16 -45 -30 0 c-16 0 -29 3 -29 6 0 10 23 84 26 84 1 0 9
-20 17 -45z"/>
<path d="M2540 544 c0 -114 0 -115 23 -112 21 3 22 7 19 81 -2 42 0 77 5 77 4
0 27 -35 49 -78 34 -63 46 -77 65 -77 24 0 24 1 27 113 l3 112 -27 0 -26 0 4
-75 c2 -41 1 -75 -2 -75 -4 0 -24 34 -46 75 -34 65 -42 75 -66 75 l-28 0 0
-116z"/>
<path d="M2770 546 l0 -113 60 3 c33 1 69 5 80 9 43 14 65 111 39 168 -15 34
-49 47 -119 47 l-60 0 0 -114z m130 59 c7 -8 13 -33 14 -54 1 -50 -25 -81 -68
-81 l-31 0 0 75 0 75 36 0 c20 0 42 -7 49 -15z"/>
<path d="M472 575 c-17 -25 -26 -45 -20 -45 7 0 1 -8 -12 -17 -14 -10 -28 -17
-32 -15 -12 3 -9 -47 3 -71 16 -29 14 -28 33 -21 10 4 15 16 15 33 -2 23 -2
24 -6 4 -2 -13 -9 -23 -14 -23 -6 0 -7 5 -4 10 3 6 1 10 -5 10 -7 0 -8 5 -3
13 8 12 9 17 12 38 0 5 6 7 13 3 6 -4 9 -3 6 2 -7 11 17 35 26 27 6 -7 9 11 7
40 -1 9 4 17 13 17 23 0 31 -21 12 -32 -24 -14 -19 -29 9 -24 17 3 26 -1 30
-15 4 -11 10 -17 15 -14 10 6 17 -12 16 -45 -1 -14 -6 -24 -13 -22 -7 1 -13
-7 -13 -19 0 -20 -4 -21 -62 -16 -55 4 -60 3 -43 -9 10 -8 36 -14 58 -14 51 0
107 52 107 99 0 17 -3 30 -7 29 -5 -2 -18 5 -31 14 -16 11 -19 17 -10 21 9 3
7 7 -7 13 -11 5 -20 14 -21 19 -3 26 -18 55 -28 55 -7 0 -26 -20 -44 -45z"/>
<path d="M485 480 c-7 -11 -4 -12 37 -14 21 -2 25 1 16 11 -12 15 -44 17 -53
3z"/>
<path d="M926 384 l-35 -46 20 -39 c11 -22 24 -37 29 -34 12 8 13 -5 1 -24 -7
-11 -13 -6 -26 19 -11 21 -20 29 -26 23 -10 -10 26 -83 41 -83 16 0 32 31 28
55 -4 20 2 31 25 50 l31 24 -28 7 c-27 6 -28 9 -22 50 3 24 4 44 1 44 -2 0
-20 -21 -39 -46z"/>
<path d="M55 384 c6 -39 5 -42 -20 -48 l-27 -7 38 -34 39 -33 18 34 c22 42 17
61 -24 100 l-31 29 7 -41z"/>
<path d="M2362 370 c-12 -5 -27 -21 -34 -34 -16 -36 8 -66 67 -85 26 -9 53
-24 59 -33 17 -27 -5 -52 -47 -56 -35 -3 -42 1 -72 43 -14 20 -14 20 -15 -2 0
-35 34 -63 78 -63 53 0 82 23 82 65 0 38 -23 56 -88 70 -44 9 -59 38 -32 65
11 11 24 20 29 20 24 0 61 -21 61 -35 0 -8 7 -15 15 -15 38 0 -7 58 -50 65
-16 2 -40 0 -53 -5z"/>
<path d="M1150 277 c0 -85 2 -96 23 -115 32 -30 96 -30 125 1 17 18 21 37 24
115 2 69 0 92 -9 92 -10 0 -13 -24 -13 -88 0 -100 -12 -122 -67 -122 -50 0
-63 25 -63 123 0 51 -4 87 -10 87 -6 0 -10 -38 -10 -93z"/>
<path d="M1370 254 c0 -86 3 -115 12 -112 8 3 11 34 10 104 -2 82 0 96 11 81
93 -139 124 -181 135 -185 9 -3 12 24 12 112 0 86 -3 116 -12 116 -10 0 -12
-18 -10 -63 2 -35 2 -79 0 -97 -3 -33 -4 -32 -67 63 -35 53 -70 97 -77 97 -11
0 -14 -25 -14 -116z"/>
<path d="M1610 255 c0 -70 4 -115 10 -115 6 0 10 45 10 115 0 70 -4 115 -10
115 -6 0 -10 -45 -10 -115z"/>
<path d="M1670 363 c0 -15 71 -208 80 -217 6 -5 12 -8 14 -5 3 2 23 55 44 117
26 72 36 112 28 112 -7 0 -25 -41 -41 -91 -16 -50 -32 -92 -35 -94 -3 -2 -20
37 -37 88 -17 50 -35 93 -42 95 -6 2 -11 0 -11 -5z"/>
<path d="M1895 258 l0 -113 78 -3 c59 -2 77 0 77 11 0 10 -15 12 -65 9 l-65
-4 0 46 0 46 60 0 c33 0 60 4 60 10 0 6 -27 10 -60 10 l-60 0 0 40 0 40 65 0
c37 0 65 4 65 10 0 6 -33 10 -78 10 l-78 0 1 -112z"/>
<path d="M2102 258 c2 -83 6 -113 17 -116 10 -3 12 8 10 49 l-4 54 43 3 c55 4
70 -9 74 -61 2 -22 8 -42 15 -44 13 -5 7 69 -8 98 -6 11 -4 21 6 29 8 7 15 25
15 41 0 41 -32 59 -108 59 l-63 0 3 -112z m138 72 c8 -14 8 -26 0 -40 -9 -16
-21 -20 -63 -20 l-53 0 1 40 0 40 52 0 c42 0 54 -4 63 -20z"/>
<path d="M2546 258 c1 -72 6 -114 13 -116 8 -3 11 32 11 112 0 86 -3 116 -12
116 -10 0 -13 -28 -12 -112z"/>
<path d="M2600 360 c0 -5 18 -10 41 -10 l41 0 -3 -102 c-2 -72 1 -103 9 -106
9 -3 12 25 12 102 l0 106 35 0 c19 0 35 5 35 10 0 6 -35 10 -85 10 -50 0 -85
-4 -85 -10z"/>
<path d="M2837 303 c38 -59 44 -74 41 -112 -2 -29 1 -46 10 -48 8 -3 12 10 12
49 0 45 6 63 40 116 26 40 35 62 26 62 -8 0 -29 -23 -46 -52 l-32 -52 -19 25
c-10 13 -24 36 -30 52 -6 15 -19 27 -29 27 -15 0 -10 -13 27 -67z"/>
<path d="M100 260 c-15 -36 -25 -38 -35 -7 -4 14 -8 17 -12 9 -5 -13 22 -62
35 -62 11 0 52 77 45 84 -12 12 -21 6 -33 -24z"/>
<path d="M101 188 c-18 -28 -30 -52 -29 -53 12 -10 102 -51 148 -67 144 -50
314 -62 457 -32 78 16 249 79 259 95 4 7 -24 65 -51 107 -1 1 -27 -11 -58 -27
-31 -16 -88 -40 -127 -52 -55 -18 -69 -27 -65 -39 5 -12 4 -13 -6 -2 -15 14
-43 16 -34 2 4 -6 11 -8 16 -5 5 4 9 1 9 -4 0 -6 -4 -11 -9 -11 -10 0 -9 -26
2 -36 4 -4 7 2 7 14 0 27 8 28 26 5 12 -17 13 -16 8 3 -5 17 0 22 20 26 16 3
27 0 30 -9 12 -30 10 -31 -49 -36 -14 -1 -25 -5 -25 -9 0 -4 -10 -8 -22 -8
-13 0 -51 -2 -86 -4 -57 -4 -64 -2 -72 17 -7 18 -9 18 -9 5 -1 -24 -17 -23
-24 2 -6 24 -27 27 -27 4 0 -8 5 -12 10 -9 6 3 10 1 10 -5 0 -7 -7 -9 -16 -6
-9 3 -24 6 -35 6 -24 0 -26 35 -3 58 15 15 16 14 12 -14 -3 -16 -3 -23 0 -15
3 10 17 12 57 7 31 -3 56 -2 60 3 3 6 -2 9 -12 7 -10 -2 -27 0 -38 5 -14 5
-15 8 -5 9 8 1 -19 10 -60 21 -41 11 -112 37 -157 58 l-81 39 -31 -50z m74 -5
c-11 -3 -24 -10 -30 -15 -7 -7 -3 -8 12 -4 16 5 25 2 32 -13 6 -11 11 -24 11
-29 0 -15 -41 -2 -47 14 -3 8 -12 14 -19 14 -12 0 -12 4 -4 20 7 13 20 20 38
19 21 -1 22 -2 7 -6z m702 -7 c-3 -7 -1 -18 4 -23 6 -6 -1 -15 -17 -24 -21
-11 -28 -11 -31 -1 -5 14 -33 16 -33 2 0 -5 5 -10 10 -10 6 0 10 -5 10 -11 0
-6 -6 -9 -14 -6 -7 3 -22 0 -32 -7 -27 -19 -54 -16 -54 5 0 20 33 34 52 23 7
-4 9 -3 5 2 -4 4 16 21 45 36 63 32 62 32 55 14z m-605 -48 c17 -6 25 -15 21
-24 -3 -8 0 -14 6 -14 6 0 11 6 11 14 0 8 5 18 11 22 9 5 10 -1 5 -22 -10 -36
-13 -39 -28 -26 -14 11 -18 12 -47 12 -15 0 -18 5 -14 23 5 22 5 22 -11 2 -17
-20 -17 -20 -13 2 3 12 0 24 -7 27 -18 9 36 -4 66 -16z"/>
<path d="M533 95 c4 -9 7 -21 7 -26 0 -5 7 -9 15 -9 22 0 18 28 -7 41 -18 10
-20 9 -15 -6z"/>
<path d="M494 85 c-4 -8 -10 -12 -15 -9 -5 3 -9 0 -9 -5 0 -17 20 -13 26 4 6
14 8 13 20 -2 14 -19 18 -14 8 11 -8 20 -23 21 -30 1z"/>
<path d="M1162 65 c-7 -14 -12 -33 -12 -42 0 -14 2 -14 15 3 15 19 15 19 31
-1 15 -18 16 -18 10 -2 -3 11 -9 30 -12 43 -8 31 -18 30 -32 -1z"/>
<path d="M1220 50 c0 -36 3 -40 24 -40 31 0 37 10 30 49 -5 24 -12 31 -30 31
-21 0 -24 -5 -24 -40z"/>
<path d="M1292 53 c2 -31 7 -39 26 -41 12 -2 22 2 22 8 0 7 -7 10 -15 7 -8 -4
-17 -2 -20 4 -4 5 4 13 17 18 l23 10 -24 0 c-28 1 -19 16 14 24 13 3 8 5 -13
6 -32 1 -33 0 -30 -36z"/>
<path d="M1370 75 c-15 -18 -10 -45 12 -59 26 -16 53 14 44 48 -7 29 -36 35
-56 11z m48 -22 c4 -27 -25 -38 -37 -14 -7 12 -6 22 2 30 16 16 31 9 35 -16z"/>
<path d="M1452 50 c0 -34 2 -39 7 -20 l7 24 17 -24 c19 -27 23 -20 6 11 -8 15
-7 25 3 37 10 14 8 13 -9 -1 -21 -18 -21 -18 -26 0 -3 10 -5 -2 -5 -27z"/>
<path d="M1522 57 c-2 -41 17 -58 43 -37 17 14 20 56 5 65 -6 4 -10 -7 -10
-24 0 -43 -27 -41 -33 2 -4 31 -4 31 -5 -6z"/>
<path d="M1598 83 c6 -2 13 -21 13 -41 2 -34 2 -35 6 -7 3 17 9 36 15 43 8 9
4 12 -18 11 -16 0 -23 -3 -16 -6z"/>
<path d="M1662 57 c-16 -45 -15 -55 3 -31 15 19 15 19 30 0 18 -23 19 -11 4
33 -14 40 -22 39 -37 -2z"/>
<path d="M1792 78 c-29 -29 3 -82 36 -61 25 15 22 67 -3 71 -11 1 -26 -3 -33
-10z m44 -37 c-9 -14 -33 -14 -41 -1 -4 6 -1 18 6 26 11 13 14 13 27 0 8 -8
11 -19 8 -25z"/>
<path d="M1872 78 c-28 -28 -1 -75 38 -63 24 8 27 35 3 35 -14 0 -15 -2 -4 -9
9 -6 10 -11 2 -15 -16 -10 -31 2 -31 24 0 26 18 34 37 18 14 -11 16 -11 11 2
-6 19 -40 24 -56 8z"/>
<path d="M1951 57 c-1 -25 4 -40 14 -43 23 -9 44 14 40 44 -4 40 -7 41 -14 4
-3 -18 -10 -33 -16 -33 -5 0 -13 15 -16 33 l-6 33 -2 -38z"/>
<path d="M2020 49 c0 -25 4 -38 10 -34 6 4 8 15 5 26 -10 29 10 23 25 -8 l14
-28 6 35 c3 19 4 40 1 45 -3 6 -8 -3 -11 -19 l-5 -29 -14 26 c-20 38 -31 33
-31 -14z"/>
<path d="M2126 75 c-4 -10 3 -20 19 -27 13 -6 22 -15 19 -19 -3 -5 -15 -4 -27
2 -21 11 -21 10 -5 -6 9 -10 23 -15 33 -11 19 7 16 41 -4 41 -8 0 -16 6 -19
14 -3 10 2 11 18 6 15 -5 20 -4 16 4 -10 16 -43 13 -50 -4z"/>
<path d="M2198 83 c6 -2 12 -20 12 -39 0 -44 16 -36 22 11 4 32 2 35 -22 34
-14 0 -19 -3 -12 -6z"/>
<path d="M2266 56 c-20 -48 -20 -57 0 -31 15 19 16 19 29 2 21 -29 25 -5 5 33
l-18 35 -16 -39z"/>
<path d="M2328 78 c5 -7 8 -23 6 -35 -2 -12 1 -25 6 -28 6 -4 10 8 10 29 0 19
6 37 13 39 6 3 -1 6 -17 6 -21 1 -26 -2 -18 -11z"/>
<path d="M2390 50 c0 -36 2 -40 26 -40 15 0 23 4 19 11 -4 6 -13 8 -21 5 -8
-3 -14 1 -14 9 0 7 8 16 18 18 16 4 16 5 0 6 -26 2 -22 19 5 24 19 4 18 4 -5
6 -26 1 -28 -2 -28 -39z"/>
<path d="M2522 50 c0 -38 1 -40 7 -16 l6 29 14 -26 c21 -39 31 -33 30 16 -2
32 -3 35 -6 13 l-5 -29 -23 29 -24 29 1 -45z"/>
<path d="M2637 84 c-11 -11 -8 -62 3 -69 6 -3 19 -3 31 0 28 9 23 69 -6 73
-12 2 -24 0 -28 -4z m39 -15 c3 -6 0 -15 -7 -20 -12 -7 -12 -9 1 -9 10 0 11
-3 3 -11 -14 -14 -33 -3 -33 20 0 29 22 42 36 20z"/>
<path d="M2710 50 c0 -37 2 -40 27 -40 14 0 23 3 19 7 -4 5 -13 8 -18 8 -19 0
-20 23 -1 28 17 4 17 5 1 6 -26 2 -22 19 5 24 19 4 18 4 -5 6 -26 1 -28 -2
-28 -39z"/>
<path d="M2781 48 c1 -24 3 -35 6 -25 5 18 33 24 33 7 0 -5 4 -10 9 -10 5 0 8
15 7 33 -1 27 -6 32 -29 35 -26 3 -27 1 -26 -40z"/>
<path d="M2901 59 c-15 -44 -14 -56 4 -33 15 19 15 19 31 -1 15 -18 16 -18 10
-2 -3 11 -9 30 -12 43 -8 33 -20 30 -33 -7z"/>
</g>
</svg>
